<?xml version="1.0" encoding="UTF-8"?>
<svg version="1.1" xmlns="http://www.w3.org/2000/svg" width="268" height="253">
<path d="M0 0 C2.9375 1.9375 2.9375 1.9375 5 5 C5.81340497 10.08611842 4.88207368 14.97507208 4 20 C4.68698975 20.05945801 5.37397949 20.11891602 6.08178711 20.18017578 C40.95884124 23.31954427 78.28747405 30.3306627 102.1796875 58.52734375 C108.04428922 66.4936375 111.44430637 75.0817107 112 85 C109.98868413 87.01131587 105.88257225 86.15916665 103.12457275 86.16494751 C102.28915632 86.17059105 101.45373989 86.1762346 100.5930078 86.18204916 C97.77067001 86.19986234 94.94834968 86.21049754 92.12597656 86.22119141 C90.11066457 86.23240098 88.0953549 86.24403295 86.08004761 86.25605774 C80.58302121 86.28749726 75.08598237 86.31256984 69.58891773 86.3362546 C64.9929785 86.35665721 60.39705771 86.38020941 55.80113387 86.40379179 C44.93775332 86.45951643 34.07435728 86.51020119 23.2109375 86.55761719 C12.04311672 86.60643154 0.87535272 86.66275274 -10.29241157 86.72303832 C-19.89690895 86.77466226 -29.50142098 86.82193349 -39.10595727 86.86572587 C-44.83381403 86.8918589 -50.56165282 86.91947107 -56.28948212 86.9510994 C-61.69681788 86.98073249 -67.10415269 87.00484778 -72.51153183 87.02499962 C-74.47971593 87.03319219 -76.44789362 87.04319017 -78.41605759 87.05528831 C-91.64380221 87.13506027 -104.79294578 86.74795895 -118 86 C-118.18858203 74.30443804 -113.88275354 64.52755956 -106 56 C-105.10087891 54.93072266 -105.10087891 54.93072266 -104.18359375 53.83984375 C-82.10651705 29.34336138 -45.29948064 23.21817652 -14.28051758 20.30957031 C-11.9737863 20.12140904 -11.9737863 20.12140904 -10 19 C-10.495 17.7625 -10.495 17.7625 -11 16.5 C-12.22907649 12.1982323 -12.49644339 9.46799051 -12 5 C-8.64524049 0.12034981 -5.82662873 -1.04046942 0 0 Z " fill="#000000" transform="translate(138,138)"/>
<path d="M0 0 C-0.79443359 3.80908203 -0.79443359 3.80908203 -2.64453125 5.52734375 C-12.82970836 12.15229679 -22.67580614 15.89102478 -34.796875 16.52734375 C-35.5481366 16.56866928 -36.29939819 16.60999481 -37.07342529 16.65257263 C-44.79558108 17.06432051 -52.51968239 17.36114158 -60.25 17.5625 C-61.04215912 17.58334656 -61.83431824 17.60419312 -62.65048218 17.62567139 C-81.85844385 18.10510181 -101.07196264 18.1106811 -120.28471375 18.12293625 C-122.76659491 18.12496252 -125.24846823 18.12870927 -127.73034668 18.13284302 C-145.16374605 18.15809249 -162.58446265 18.04437688 -180.01171875 17.5546875 C-180.7249058 17.53527225 -181.43809284 17.51585701 -182.17289162 17.49585342 C-222.63509147 16.36490853 -222.63509147 16.36490853 -236 3 C-236 2.01 -236 1.02 -236 0 C-213.35047085 -0.15599545 -190.70090069 -0.30391444 -168.05126095 -0.4429636 C-157.52771758 -0.50774487 -147.00420084 -0.57492178 -136.48071289 -0.64819336 C-90.97277154 -0.96379774 -45.4970202 -1.26256499 0 0 Z " fill="#000101" transform="translate(253,229)"/>
<path d="M0 0 C2.52079747 2.21228196 4.92719007 4.49450145 7.3046875 6.859375 C8.13419922 7.63667969 8.13419922 7.63667969 8.98046875 8.4296875 C12.7679009 12.32941548 15.10868428 16.99446373 17.5546875 21.796875 C17.8964502 22.46533447 18.23821289 23.13379395 18.59033203 23.82250977 C25.53564221 38.00900657 25.97253962 54.90615217 21.3046875 69.859375 C14.60502662 86.8258135 3.26815863 99.39513228 -13.2578125 107.234375 C-29.92600485 113.79506372 -45.30948901 114.04831722 -62.0078125 107.609375 C-79.511788 99.6530225 -90.68491089 87.74225182 -97.6953125 69.82421875 C-103.08347974 53.84914479 -101.7028361 36.77149094 -94.5078125 21.609375 C-85.55297398 4.84486599 -71.88769125 -5.6381147 -53.890625 -11.34765625 C-35.17711132 -15.67985445 -15.21121947 -12.08079459 0 0 Z M-71.6953125 5.859375 C-72.42363281 6.4059375 -73.15195313 6.9525 -73.90234375 7.515625 C-84.05539791 15.74678172 -90.80045544 27.9016151 -92.6953125 40.859375 C-93.72915704 58.07881843 -90.92196876 72.71192784 -79.59375 86.3984375 C-70.14269999 96.3838225 -57.14579029 103.5227109 -43.25390625 104.09765625 C-26.43872071 104.46384633 -12.20298179 101.04518602 0.5546875 89.234375 C12.46109325 76.43312456 16.88840245 62.17809257 16.5859375 45.0390625 C16.14994726 35.5301154 12.44646161 26.76051761 7.3046875 18.859375 C6.66080078 17.84617187 6.66080078 17.84617187 6.00390625 16.8125 C-1.3411649 6.1362839 -13.39381392 -1.83513191 -26.0703125 -4.515625 C-42.79332028 -6.81563753 -58.0564284 -4.50705542 -71.6953125 5.859375 Z " fill="#010401" transform="translate(175.6953125,18.140625)"/>
<path d="M0 0 C2.31 1.98 4.62 3.96 7 6 C5.31165618 9.48220913 3.28511928 11.75073503 0.375 14.21484375 C-3.86454922 17.86190642 -7.94197566 21.65313114 -12 25.5 C-13.48947741 26.90636219 -14.97906348 28.31260931 -16.46875 29.71875 C-17.21898437 30.42773438 -17.96921875 31.13671875 -18.7421875 31.8671875 C-24.24308835 37.0635402 -29.75665796 42.24582655 -35.29492188 47.40234375 C-36.82822759 48.83904945 -38.34490103 50.29345673 -39.859375 51.75 C-40.64828125 52.4925 -41.4371875 53.235 -42.25 54 C-43.21679688 54.928125 -43.21679688 54.928125 -44.203125 55.875 C-46 57 -46 57 -48.234375 56.6875 C-48.81703125 56.460625 -49.3996875 56.23375 -50 56 C-50 55.34 -50 54.68 -50 54 C-51.485 53.505 -51.485 53.505 -53 53 C-54.578125 51.3984375 -54.578125 51.3984375 -56.25 49.375 C-58.59254373 46.60833257 -60.97046129 43.97206557 -63.5625 41.4375 C-65.91656658 39.09944748 -68.25169619 36.75292214 -70.5 34.3125 C-71.25796875 33.50232422 -71.25796875 33.50232422 -72.03125 32.67578125 C-73 31 -73 31 -72.81640625 28.93359375 C-71.60651826 26.06806955 -69.47948753 24.78014489 -67 23 C-59.92348669 28.62904468 -54.04509384 35.3096991 -48 42 C-43.28042291 40.57636157 -40.48670338 37.80956955 -37.1875 34.3125 C-33.32156437 30.27107464 -29.3387707 26.50005488 -25.10375977 22.84545898 C-20.67346405 18.95911741 -16.44749197 14.84792385 -12.1796875 10.78515625 C-8.22632833 7.03949168 -4.2307974 3.43001556 0 0 Z " fill="#010301" transform="translate(172,45)"/>
<path d="" fill="#FFFF00" transform="translate(0,0)"/>
<path d="" fill="#FFFF00" transform="translate(0,0)"/>
<path d="" fill="#FFFF00" transform="translate(0,0)"/>
<path d="" fill="#FFFF00" transform="translate(0,0)"/>
<path d="" fill="#FFFF00" transform="translate(0,0)"/>
<path d="" fill="#FFFF00" transform="translate(0,0)"/>
<path d="" fill="#FFFF00" transform="translate(0,0)"/>
<path d="" fill="#FFFF00" transform="translate(0,0)"/>
<path d="" fill="#FFFF00" transform="translate(0,0)"/>
<path d="" fill="#FFFF00" transform="translate(0,0)"/>
<path d="" fill="#FFFF00" transform="translate(0,0)"/>
<path d="" fill="#FFFF00" transform="translate(0,0)"/>
<path d="" fill="#FFFF00" transform="translate(0,0)"/>
<path d="" fill="#FFFF00" transform="translate(0,0)"/>
<path d="" fill="#FFFF00" transform="translate(0,0)"/>
<path d="" fill="#FFFF00" transform="translate(0,0)"/>
<path d="" fill="#FFFF00" transform="translate(0,0)"/>
<path d="" fill="#FFFF00" transform="translate(0,0)"/>
<path d="" fill="#FFFF00" transform="translate(0,0)"/>
<path d="" fill="#FFFF00" transform="translate(0,0)"/>
<path d="" fill="#FFFF00" transform="translate(0,0)"/>
<path d="" fill="#FFFF00" transform="translate(0,0)"/>
<path d="" fill="#FFFF00" transform="translate(0,0)"/>
<path d="" fill="#FFFF00" transform="translate(0,0)"/>
<path d="" fill="#FFFF00" transform="translate(0,0)"/>
<path d="" fill="#FFFF00" transform="translate(0,0)"/>
<path d="" fill="#FFFFFF" transform="translate(0,0)"/>
<path d="" fill="#FFFF00" transform="translate(0,0)"/>
<path d="" fill="#FFFF00" transform="translate(0,0)"/>
<path d="" fill="#FFFF00" transform="translate(0,0)"/>
<path d="" fill="#FFFF00" transform="translate(0,0)"/>
<path d="" fill="#FFFF00" transform="translate(0,0)"/>
<path d="" fill="#FFFF00" transform="translate(0,0)"/>
<path d="" fill="#FFFF00" transform="translate(0,0)"/>
<path d="" fill="#FFFF00" transform="translate(0,0)"/>
<path d="" fill="#FFFF00" transform="translate(0,0)"/>
<path d="" fill="#FFFF00" transform="translate(0,0)"/>
<path d="" fill="#FFFF00" transform="translate(0,0)"/>
<path d="" fill="#FFFF00" transform="translate(0,0)"/>
<path d="" fill="#FFFF00" transform="translate(0,0)"/>
<path d="" fill="#FFFF00" transform="translate(0,0)"/>
<path d="" fill="#FFFF00" transform="translate(0,0)"/>
<path d="" fill="#FFFF00" transform="translate(0,0)"/>
<path d="" fill="#FFFF00" transform="translate(0,0)"/>
<path d="" fill="#FFFF00" transform="translate(0,0)"/>
<path d="" fill="#FFFF00" transform="translate(0,0)"/>
<path d="" fill="#FFFF00" transform="translate(0,0)"/>
<path d="" fill="#FFFF00" transform="translate(0,0)"/>
<path d="" fill="#FFFF00" transform="translate(0,0)"/>
<path d="" fill="#FFFF00" transform="translate(0,0)"/>
<path d="" fill="#FFFF00" transform="translate(0,0)"/>
<path d="" fill="#FFFF00" transform="translate(0,0)"/>
<path d="" fill="#FFFF00" transform="translate(0,0)"/>
<path d="" fill="#FFFF00" transform="translate(0,0)"/>
<path d="" fill="#FFFF00" transform="translate(0,0)"/>
<path d="" fill="#FFFF00" transform="translate(0,0)"/>
<path d="" fill="#FFFF00" transform="translate(0,0)"/>
<path d="" fill="#FFFF00" transform="translate(0,0)"/>
<path d="" fill="#FFFF00" transform="translate(0,0)"/>
<path d="" fill="#FFFF00" transform="translate(0,0)"/>
<path d="" fill="#FFFF00" transform="translate(0,0)"/>
<path d="" fill="#FFFF00" transform="translate(0,0)"/>
<path d="" fill="#FFFF00" transform="translate(0,0)"/>
</svg>
