<?xml version="1.0" encoding="UTF-8"?>
<svg version="1.1" xmlns="http://www.w3.org/2000/svg" width="1088" height="253">
<path d="M0 0 C359.04 0 718.08 0 1088 0 C1088 83.49 1088 166.98 1088 253 C728.96 253 369.92 253 0 253 C0 169.51 0 86.02 0 0 Z " fill="#CAFE74" transform="translate(0,0)"/>
<path d="M0 0 C0.74378906 0.57621094 1.48757812 1.15242188 2.25390625 1.74609375 C3.08148438 2.36484375 3.9090625 2.98359375 4.76171875 3.62109375 C15.65515691 12.90954259 23.06312084 27.55117564 24.25390625 41.74609375 C25.41179861 60.75658099 21.19600401 76.67053791 8.6640625 91.2109375 C-3.20650748 103.69716103 -17.95426401 110.6304853 -35.15966797 111.09790039 C-43.38741906 111.16994061 -51.05215517 110.93570573 -58.74609375 107.74609375 C-59.85082031 107.29363281 -60.95554688 106.84117188 -62.09375 106.375 C-77.74809422 99.27177743 -89.03749682 87.34053747 -95.74609375 71.4296875 C-101.53624536 55.89127283 -100.30782855 37.80337436 -93.74609375 22.74609375 C-91.69897159 18.82203772 -89.4080538 15.27797539 -86.74609375 11.74609375 C-86.24722656 11.05386719 -85.74835938 10.36164062 -85.234375 9.6484375 C-64.59528212 -16.50134517 -26.01541179 -19.06036092 0 0 Z " fill="#C6FD6B" transform="translate(174.74609375,18.25390625)"/>
<path d="M0 0 C2.875 1.8125 2.875 1.8125 5 5 C5.355281 10.77981534 4.19218833 15.69651573 2 21 C2.6798999 21.05534912 3.3597998 21.11069824 4.06030273 21.16772461 C7.18614709 21.42296604 10.3118228 21.68022009 13.4375 21.9375 C14.50677734 22.02451172 15.57605469 22.11152344 16.67773438 22.20117188 C44.21767835 24.4751122 73.15493626 31.65231324 94 51 C94.71285156 51.62261719 95.42570313 52.24523437 96.16015625 52.88671875 C103.55861073 59.70435998 108.96259402 69.08104982 111 79 C111 80.98 111 82.96 111 85 C35.76 85 -39.48 85 -117 85 C-117 71.26297077 -111.69925827 62.79335131 -102.4375 52.9375 C-77.94043549 29.29282956 -41.89873353 21.75978599 -9 21 C-9.32355469 19.94167969 -9.64710938 18.88335937 -9.98046875 17.79296875 C-11.38475464 12.56859481 -12.27823282 7.43472919 -9.6875 2.5 C-6.7728215 -0.09082533 -3.75763954 -0.53680565 0 0 Z " fill="#000100" transform="translate(138,138)"/>
<path d="M0 0 C0.804375 0.25652344 1.60875 0.51304688 2.4375 0.77734375 C14.03206688 4.89553595 23.45982455 13.29511788 28.8125 24.375 C32.8186689 33.20771368 33.23006398 42.3256588 33.375 51.875 C33.60183163 60.11327961 34.22917929 68.04287205 35.875 76.125 C36.03661621 76.92276855 36.19823242 77.72053711 36.36474609 78.54248047 C37.16202963 82.15698746 38.12689871 85.48197824 39.6328125 88.8671875 C41 92 41 92 41 95 C31.43 95 21.86 95 12 95 C8 84 8 84 8 81 C7.34 81 6.68 81 6 81 C5.74605469 81.58652344 5.49210937 82.17304688 5.23046875 82.77734375 C3.8647447 85.24431831 2.426654 86.70586574 0.3125 88.5625 C-0.65236328 89.43068359 -0.65236328 89.43068359 -1.63671875 90.31640625 C-8.05010614 94.88528223 -13.55626491 95.52434141 -21.25 95.4375 C-22.18223389 95.42992676 -23.11446777 95.42235352 -24.07495117 95.41455078 C-34.93236842 95.15479942 -42.84051234 92.18522048 -51 85 C-51.59425781 84.49855469 -52.18851562 83.99710937 -52.80078125 83.48046875 C-62.5559727 74.59048275 -67.52153214 62.66418421 -68.3125 49.6640625 C-68.83688844 35.86973336 -66.17862859 24.71140547 -57 14 C-42.4340467 -0.90109913 -20.09921095 -6.86984749 0 0 Z " fill="#020201" transform="translate(479,104)"/>
<path d="M0 0 C0 0.66 0 1.32 0 2 C0.66 2 1.32 2 2 2 C10.64846632 10.62668177 14.86969086 22.13265244 15.4296875 34.1171875 C15.50347438 35.54429323 15.57770852 36.97137589 15.65234375 38.3984375 C15.76455218 40.62026156 15.87350929 42.84207229 15.97412109 45.06445312 C16.55035073 57.55598739 18.04312686 69.41310435 22.44921875 81.23046875 C23 83 23 83 23 86 C13.43 86 3.86 86 -6 86 C-7.32 82.04 -8.64 78.08 -10 74 C-10.66 74 -11.32 74 -12 74 C-12.53625 74.721875 -13.0725 75.44375 -13.625 76.1875 C-17.8079937 81.14104517 -24.42757536 85.53672444 -31.0168457 86.2043457 C-46.82719254 86.8742038 -59.07802619 84.92806279 -71.26171875 73.96484375 C-80.98343729 63.76166867 -85.9935939 50.5865629 -86.4375 36.625 C-86.12037318 23.59637334 -81.79573248 11.78516369 -72.48828125 2.4921875 C-52.31744477 -14.94508341 -21.51331882 -16.26519077 0 0 Z " fill="#010201" transform="translate(900,113)"/>
<path d="M0 0 C5.09838799 4.7842693 7.79649297 10.0643977 8.6328125 17.01171875 C8.84909213 24.25708638 8.71731958 30.44401732 4.1875 36.3125 C3.72472656 36.91320312 3.26195312 37.51390625 2.78515625 38.1328125 C-4.4801365 46.3395735 -15.37748685 50.57574407 -26.13525391 51.51538086 C-28.49020255 51.61451317 -30.83058115 51.64044729 -33.1875 51.625 C-34.01096924 51.62371094 -34.83443848 51.62242187 -35.68286133 51.62109375 C-42.05423402 51.52094446 -47.82183704 50.57414354 -53.8125 48.3125 C-50.3307746 53.47847468 -47.05290623 56.40730878 -40.94140625 57.8828125 C-26.99119135 59.79857235 -12.70217703 57.79406555 1.1875 56.3125 C1.1875 64.8925 1.1875 73.4725 1.1875 82.3125 C-18.24799365 88.79099788 -40.10010406 90.63136368 -59.125 81.76953125 C-71.95345381 74.76198835 -78.69702476 65.43342864 -83.69140625 51.9375 C-87.65413033 37.30590338 -84.11103239 22.95937633 -77.1875 9.9375 C-70.4503598 -0.4180531 -59.37011604 -6.71988088 -47.6875 -10 C-31.12096114 -13.09321372 -13.55474301 -10.34133411 0 0 Z " fill="#020201" transform="translate(667.8125,112.6875)"/>
<path d="M0 0 C5.77173962 5.42981192 8.35595389 11.39894601 8.77954102 19.32104492 C8.89016165 26.42452834 8.27908068 32.0350952 3.1875 37.3125 C2.60613281 37.92351562 2.02476562 38.53453125 1.42578125 39.1640625 C-9.49908335 49.57924781 -21.96117104 51.87458582 -36.546875 51.58203125 C-42.17754846 51.33540472 -47.46285049 50.04417845 -52.8125 48.3125 C-50.9234027 51.86706314 -49.56635669 53.89040753 -45.875 55.5625 C-44.87146484 56.03429687 -44.87146484 56.03429687 -43.84765625 56.515625 C-38.6334605 58.55726787 -33.72218907 58.50397786 -28.1875 58.5 C-27.26557861 58.50064453 -26.34365723 58.50128906 -25.39379883 58.50195312 C-16.41482431 58.43428594 -7.71410491 57.47043235 1.1875 56.3125 C1.1875 64.8925 1.1875 73.4725 1.1875 82.3125 C-17.96403557 88.69634519 -39.78527535 90.67696496 -58.609375 82.02734375 C-61.16287922 80.6038841 -63.46767939 79.05739159 -65.8125 77.3125 C-66.66585937 76.68730469 -67.51921875 76.06210938 -68.3984375 75.41796875 C-76.77677199 68.63730465 -82.82103753 58.52905359 -84.59765625 47.76953125 C-85.9430987 32.38256214 -83.59642016 20.12640551 -74.8125 7.3125 C-74.235 6.425625 -73.6575 5.53875 -73.0625 4.625 C-54.09138725 -14.8730881 -21.43245198 -16.35148276 0 0 Z " fill="#020201" transform="translate(801.8125,112.6875)"/>
<path d="M0 0 C0 8.91 0 17.82 0 27 C-8 26 -8 26 -10.859375 25.46484375 C-23.75876674 23.11157634 -36.94280206 23.82351469 -50 24 C-50.33 25.32 -50.66 26.64 -51 28 C-44.43616526 29.79384303 -37.90037851 31.21930867 -31.20068359 32.38696289 C-19.17277724 34.51134748 -7.12068315 37.0023665 1 47 C3.78078501 52.25972961 4.52141148 56.529339 4.4375 62.4375 C4.42920166 63.1888623 4.42090332 63.94022461 4.41235352 64.71435547 C4.2418881 70.28693656 3.56300463 74.54891914 0 79 C-0.43957031 79.598125 -0.87914062 80.19625 -1.33203125 80.8125 C-8.49184263 89.22301261 -20.40378192 92.51355461 -31 94 C-34.50645821 94.25486371 -37.98546414 94.28607248 -41.5 94.25 C-42.44834717 94.24468262 -43.39669434 94.23936523 -44.3737793 94.23388672 C-56.54787848 94.07301797 -68.10369236 92.64362392 -80 90 C-80 81.09 -80 72.18 -80 63 C-76.82375 63.495 -73.6475 63.99 -70.375 64.5 C-60.49387639 65.89715309 -50.71047268 66.28495643 -40.75 66.25 C-39.43563965 66.24677734 -38.1212793 66.24355469 -36.76708984 66.24023438 C-30.27913444 66.30674205 -30.27913444 66.30674205 -24 65 C-23.505 63.515 -23.505 63.515 -23 62 C-29.13274044 60.44195243 -35.27146564 58.92119573 -41.4375 57.5 C-42.51515625 57.24863281 -43.5928125 56.99726563 -44.703125 56.73828125 C-46.91448089 56.24308426 -49.13384291 55.78246037 -51.359375 55.35546875 C-58.68964999 53.88425159 -65.15721706 51.84725806 -71 47 C-72.26953125 44.80859375 -72.26953125 44.80859375 -73 43 C-73.66 43 -74.32 43 -75 43 C-79.87054174 35.17234363 -80.02887785 26.8956961 -79 18 C-76.53754913 9.90909001 -70.19038028 4.72861972 -63.3125 0.25 C-42.67449993 -7.53792455 -21.08018089 -4.21603618 0 0 Z " fill="#020301" transform="translate(403,106)"/>
<path d="M0 0 C1.55303833 0.00302124 1.55303833 0.00302124 3.13745117 0.00610352 C13.59694928 0.1400865 24.57795773 0.98431924 34.5625 4.3125 C34.5625 13.2225 34.5625 22.1325 34.5625 31.3125 C32.273125 30.8175 29.98375 30.3225 27.625 29.8125 C13.20007706 27.08783971 -1.82806331 28.05899936 -16.4375 28.3125 C-16.1075 29.6325 -15.7775 30.9525 -15.4375 32.3125 C-8.99073188 34.00522683 -2.55021101 35.51077089 4 36.75 C28.91095115 41.69649388 28.91095115 41.69649388 36.5625 52 C40.66894875 58.80130575 40.6757274 67.09833929 39.03125 74.80078125 C36.00453913 83.27228179 31.3213763 88.12554541 23.5625 92.3125 C13.76282373 96.57201838 4.52038551 98.6838493 -6.125 98.625 C-7.61555908 98.62197876 -7.61555908 98.62197876 -9.13623047 98.61889648 C-21.07960097 98.46112533 -32.7464263 96.65071474 -44.4375 94.3125 C-44.4375 85.4025 -44.4375 76.4925 -44.4375 67.3125 C-40.8075 67.9725 -37.1775 68.6325 -33.4375 69.3125 C-27.93244906 70.12770452 -22.61825996 70.46095323 -17.0703125 70.4453125 C-16.30951385 70.44626923 -15.54871521 70.44722595 -14.76486206 70.44821167 C-13.17331865 70.44888675 -11.58177237 70.4470798 -9.99023438 70.44287109 C-7.54811526 70.43746818 -5.10617632 70.44286163 -2.6640625 70.44921875 C-1.11197876 70.44855872 0.44010487 70.44727913 1.9921875 70.4453125 C3.0874324 70.44834885 3.0874324 70.44834885 4.20480347 70.45144653 C8.00982955 70.49753168 8.00982955 70.49753168 11.5625 69.3125 C11.5625 68.3225 11.5625 67.3325 11.5625 66.3125 C8.06286899 64.80087201 4.77761199 63.86279909 1.02734375 63.19921875 C-0.02396729 63.00593994 -1.07527832 62.81266113 -2.15844727 62.61352539 C-3.26115967 62.41106201 -4.36387207 62.20859863 -5.5 62 C-18.88290814 59.41874396 -31.93469633 56.52656779 -40.8125 45.3125 C-44.67933832 38.17372156 -45.92147881 30.83965459 -43.78515625 22.8828125 C-39.95946061 13.39246022 -33.83943059 8.00614297 -24.79296875 3.5390625 C-16.64733088 0.56149522 -8.61740997 -0.04578109 0 0 Z " fill="#020201" transform="translate(1037.4375,101.6875)"/>
<path d="M0 0 C1.11761719 -0.00257812 2.23523438 -0.00515625 3.38671875 -0.0078125 C6.3125 0.125 6.3125 0.125 9.3125 1.125 C9.3125 10.365 9.3125 19.605 9.3125 29.125 C6.87875 29.021875 4.445 28.91875 1.9375 28.8125 C-5.24759127 28.70235292 -10.81296824 29.64746055 -16.6875 34.125 C-21.60605572 39.16651962 -21.78938275 45.38912065 -22.6875 52.125 C-14.7675 52.125 -6.8475 52.125 1.3125 52.125 C1.3125 61.035 1.3125 69.945 1.3125 79.125 C-6.6075 79.125 -14.5275 79.125 -22.6875 79.125 C-22.6875 100.905 -22.6875 122.685 -22.6875 145.125 C-32.2575 145.125 -41.8275 145.125 -51.6875 145.125 C-51.75544739 132.03310631 -51.81041504 118.94133096 -51.84293652 105.84930038 C-51.85855014 99.76925827 -51.87970957 93.68934372 -51.91381836 87.609375 C-51.94656552 81.73493456 -51.96438534 75.86061634 -51.97213173 69.98609161 C-51.97764775 67.75195646 -51.98841877 65.51782752 -52.00469017 63.28374481 C-52.13873852 44.1049975 -50.96455145 27.94494031 -37.1328125 13.3828125 C-27.08566735 4.10605548 -13.50194082 -0.03136339 0 0 Z " fill="#030402" transform="translate(577.6875,53.875)"/>
<path d="M0 0 C9.57 0 19.14 0 29 0 C29 8.58 29 17.16 29 26 C37.91 26 46.82 26 56 26 C56 34.91 56 43.82 56 53 C47.09 53 38.18 53 29 53 C29.061875 56.75375 29.12375 60.5075 29.1875 64.375 C29.19418701 65.53692871 29.20087402 66.69885742 29.20776367 67.89599609 C29.42071242 75.08743996 30.66197638 81.10799287 35 87 C37.55905533 88.82666775 40.02422242 90.0101493 43 91 C43.99 91.33 44.98 91.66 46 92 C48.57497068 92.07035439 51.11449929 92.0934934 53.6875 92.0625 C56.100625 92.041875 58.51375 92.02125 61 92 C61 100.91 61 109.82 61 119 C52.85667416 121.03583146 45.01047754 120.20497465 37 118 C35.79730469 117.72542969 35.79730469 117.72542969 34.5703125 117.4453125 C22.49259197 114.39766339 11.60948576 105.31874395 5.125 94.75 C-0.42721006 83.28644294 -0.41434949 71.30824373 -0.29296875 58.88671875 C-0.28735922 57.17894365 -0.28309556 55.47116365 -0.28010559 53.76338196 C-0.26876345 49.31314277 -0.23939062 44.86320695 -0.20599365 40.41308594 C-0.17506075 35.85420839 -0.16155111 31.29528083 -0.14648438 26.73632812 C-0.11450835 17.82406541 -0.06183017 8.91210564 0 0 Z " fill="#020201" transform="translate(926,80)"/>
<path d="M0 0 C77.55 0 155.1 0 235 0 C235 0.99 235 1.98 235 3 C224.29953085 13.70046915 208.1580547 16.01921875 193.82275391 16.55419922 C192.72278894 16.59630964 191.62282398 16.63842007 190.48952675 16.68180656 C177.93891415 17.12465893 165.39289828 17.1449096 152.8359375 17.1328125 C150.30034374 17.13348938 147.76475004 17.13446256 145.22915649 17.13571167 C139.2851559 17.13735725 133.34117337 17.13392823 127.39717543 17.1285609 C121.39930382 17.12375649 115.40146277 17.12863206 109.40359116 17.13379288 C62.51060402 17.16848939 62.51060402 17.16848939 43.4765625 16.6171875 C42.31756439 16.58682404 41.15856628 16.55646057 39.96444702 16.525177 C29.80460022 16.15802608 20.60542823 14.9276608 11.5625 10.125 C10.5425293 9.61646484 10.5425293 9.61646484 9.50195312 9.09765625 C5.76986973 7.17871601 2.70107466 5.30208104 0 2 C0 1.34 0 0.68 0 0 Z " fill="#050703" transform="translate(17,229)"/>
<path d="M0 0 C0.74378906 0.57621094 1.48757812 1.15242188 2.25390625 1.74609375 C3.08148438 2.36484375 3.9090625 2.98359375 4.76171875 3.62109375 C15.65515691 12.90954259 23.06312084 27.55117564 24.25390625 41.74609375 C25.41179861 60.75658099 21.19600401 76.67053791 8.6640625 91.2109375 C-3.20650748 103.69716103 -17.95426401 110.6304853 -35.15966797 111.09790039 C-43.38741906 111.16994061 -51.05215517 110.93570573 -58.74609375 107.74609375 C-59.85082031 107.29363281 -60.95554688 106.84117188 -62.09375 106.375 C-77.74809422 99.27177743 -89.03749682 87.34053747 -95.74609375 71.4296875 C-101.53624536 55.89127283 -100.30782855 37.80337436 -93.74609375 22.74609375 C-91.69897159 18.82203772 -89.4080538 15.27797539 -86.74609375 11.74609375 C-86.24722656 11.05386719 -85.74835938 10.36164062 -85.234375 9.6484375 C-64.59528212 -16.50134517 -26.01541179 -19.06036092 0 0 Z M-72.74609375 6.74609375 C-73.73480469 7.51953125 -74.72351563 8.29296875 -75.7421875 9.08984375 C-84.62420749 16.56647191 -89.13420927 26.69222549 -91.74609375 37.74609375 C-91.93558594 38.38675781 -92.12507813 39.02742188 -92.3203125 39.6875 C-95.10059807 53.12979812 -91.46996103 67.38824408 -84.625 79.01953125 C-74.9604343 93.04420247 -62.74392799 101.59627578 -45.74609375 104.74609375 C-30.08003644 106.47292052 -14.7598533 102.14040947 -2.1328125 92.81640625 C9.0657084 83.53811731 16.28925584 70.13533885 18.25390625 55.74609375 C19.4142749 40.37596472 15.80140846 27.15596663 6.1484375 15.12109375 C-3.14610038 4.37078488 -14.77397045 -4.15813728 -29.33349609 -5.49072266 C-46.66637447 -6.33153083 -58.87107515 -4.29776591 -72.74609375 6.74609375 Z " fill="#090B05" transform="translate(174.74609375,18.25390625)"/>
<path d="M0 0 C5.66007401 3.69135262 8.87995147 8.46984418 10.875 14.875 C11.63800141 21.76291683 11.29030071 28.71547521 7.875 34.875 C3.84746545 39.50915087 -0.72919769 42.50980897 -6.921875 43.17578125 C-14.12820467 43.2043778 -21.16548601 43.17033745 -26.94140625 38.36328125 C-32.98759439 31.88001927 -33.65194748 24.63141677 -33.50390625 16.03515625 C-32.76133601 9.84196738 -29.56279173 5.9641637 -25 1.9375 C-18.68154144 -2.59530723 -7.31153725 -2.76213629 0 0 Z " fill="#CBFB79" transform="translate(876.125,130.125)"/>
<path d="M0 0 C3.79544142 2.66825696 6.76900507 6.61270727 8.32421875 10.984375 C9.58383789 18.6926965 10.11019137 27.83390427 5.8828125 34.671875 C2.45207417 38.9966168 -1.10112065 40.69711138 -6.31640625 42.18359375 C-13.94255867 42.99730232 -21.05180533 43.00822716 -27.31640625 38.18359375 C-32.40171917 33.42426243 -34.53485624 28.44508056 -34.79882812 21.51074219 C-34.8561294 14.73964184 -34.61447766 9.32107372 -30.12890625 3.890625 C-22.32876447 -3.45562922 -9.75077435 -4.3826061 0 0 Z " fill="#C8FC71" transform="translate(474.31640625,130.81640625)"/>
<path d="M0 0 C2.41498287 1.24644277 3.47835228 2.73832103 4.9375 5 C3.55058541 8.2221248 2.01313327 10.03354401 -0.6875 12.25 C-3.61602094 14.72391299 -6.3782229 17.26267394 -9.0625 20 C-12.2840855 23.27202128 -15.64842145 26.29316055 -19.12890625 29.28515625 C-21.62681556 31.5004738 -23.94274989 33.8689817 -26.28125 36.25 C-28.77834236 38.70328372 -31.43156108 40.95797718 -34.0859375 43.23828125 C-36.04259121 44.98225521 -37.86495307 46.80473677 -39.6875 48.6875 C-42.58642469 51.64640244 -45.53003691 53.84605909 -49.0625 56 C-49.48660156 55.50371094 -49.91070312 55.00742188 -50.34765625 54.49609375 C-53.32039872 51.05293929 -56.3157009 47.68790025 -59.5625 44.5 C-64.79412711 39.35066815 -69.54471232 33.78276823 -74.0625 28 C-72.4125 26.35 -70.7625 24.7 -69.0625 23 C-66.07104819 24.34300914 -63.98548448 25.82940954 -61.6796875 28.15234375 C-61.06996094 28.76400391 -60.46023437 29.37566406 -59.83203125 30.00585938 C-59.20683594 30.64330078 -58.58164063 31.28074219 -57.9375 31.9375 C-56.98810547 32.88786133 -56.98810547 32.88786133 -56.01953125 33.85742188 C-53.4037364 36.4982084 -51.13372439 38.89316342 -49.0625 42 C-42.24977883 38.90330856 -37.1139343 33.11812039 -31.93725586 27.84423828 C-30.13381309 26.07015224 -28.27687262 24.4110917 -26.359375 22.76171875 C-22.08251834 19.04309822 -17.93739196 15.19821097 -13.8125 11.3125 C-13.11898437 10.66216797 -12.42546875 10.01183594 -11.7109375 9.34179688 C-8.98933589 6.78442984 -6.29207655 4.23947537 -3.70703125 1.54296875 C-2.0625 0 -2.0625 0 0 0 Z " fill="#060803" transform="translate(173.0625,46)"/>
<path d="M0 0 C1.30066406 -0.02578125 2.60132813 -0.0515625 3.94140625 -0.078125 C7.55258726 0.26080149 9.00151847 0.60539536 11.4375 3.25 C11.6875 6.4375 11.6875 6.4375 11.4375 9.25 C2.42448446 14.52591154 -9.09600875 12.98361746 -18.90234375 10.6875 C-19.72412109 10.4709375 -19.72412109 10.4709375 -20.5625 10.25 C-18.69048938 6.08899062 -16.27262198 3.94165712 -12.5625 1.25 C-8.41482536 0.07846383 -4.29179923 0.05114359 0 0 Z " fill="#C7F876" transform="translate(769.5625,129.75)"/>
<path d="M0 0 C1.06154297 -0.0309375 1.06154297 -0.0309375 2.14453125 -0.0625 C6.68227472 -0.0963007 9.47612424 0.53122983 13.125 3.25 C12.795 5.56 12.465 7.87 12.125 10.25 C2.30256448 14.04640146 -8.84544213 12.89308349 -18.875 10.25 C-17.02633714 6.10156515 -14.50246813 3.98910859 -10.875 1.25 C-7.21649645 0.03049882 -3.81096431 0.02746641 0 0 Z " fill="#C6F873" transform="translate(633.875,129.75)"/>
</svg>
