<?xml version="1.0" encoding="UTF-8"?>
<svg version="1.1" xmlns="http://www.w3.org/2000/svg" width="1036" height="241">
<path d="M0 0 C2.69990662 1.79993774 4.5418865 3.083773 6 6 C5.93775851 7.64939939 5.80330783 9.29658602 5.625 10.9375 C5.53476563 11.81277344 5.44453125 12.68804687 5.3515625 13.58984375 C5 16 5 16 4 19 C4.66829834 19.06993164 5.33659668 19.13986328 6.02514648 19.21191406 C19.59723987 20.66028707 32.84117027 22.32210709 46 26 C46.66257813 26.17756836 47.32515625 26.35513672 48.0078125 26.53808594 C68.3291993 32.04016026 89.57270981 42.54364941 101.25 60.8125 C105.4278213 68.16278454 107.07013963 74.57647707 107 83 C83.90920866 83.15520842 60.81838051 83.30318317 37.72749043 83.4429636 C27.00165234 83.50805399 16.27583731 83.57535343 5.55004883 83.64819336 C-3.81818455 83.71180801 -13.18643468 83.77093197 -22.55472785 83.82505554 C-27.49728905 83.85375673 -32.43981676 83.88443874 -37.38232994 83.92053413 C-62.27826727 84.10064213 -87.11722804 83.86134887 -112 83 C-112.01702485 81.39269627 -112.0291988 79.78534063 -112.03930664 78.17797852 C-112.04660294 77.28289078 -112.05389923 76.38780304 -112.06141663 75.46559143 C-111.85031173 66.99071314 -106.39334484 60.09029795 -101 54 C-100.34128906 53.2471875 -99.68257812 52.494375 -99.00390625 51.71875 C-93.12454581 45.41866469 -86.49729422 41.17181252 -79 37 C-77.94167969 36.3915625 -76.88335937 35.783125 -75.79296875 35.15625 C-55.92886319 24.4112534 -31.43796015 19.62253899 -9 20 C-9.22816406 19.43152344 -9.45632812 18.86304688 -9.69140625 18.27734375 C-11.58893043 13.18040661 -12.68896792 9.38358525 -11 4 C-7.62243132 0.23642347 -5.00273693 -0.83378949 0 0 Z " fill="#000000" transform="translate(131,131)"/>
<path d="M0 0 C10.42709845 7.99748328 16.83549611 18.19043163 18.9375 31.3125 C19.6876787 37.92436911 19.89912827 44.55383817 20.16577148 51.19848633 C20.67516662 62.11870958 22.44471657 72.59788309 26.625 82.75 C26.625 83.74 26.625 84.73 26.625 85.75 C17.055 85.75 7.485 85.75 -2.375 85.75 C-4.025 82.12 -5.675 78.49 -7.375 74.75 C-8.344375 75.8225 -9.31375 76.895 -10.3125 78 C-16.69517816 84.39562477 -24.58416334 86.84031337 -33.5 87 C-46.3822662 86.86129458 -56.78782845 81.92538189 -66.046875 73.234375 C-75.62953911 63.00857907 -79.74807992 49.58380326 -79.375 35.75 C-77.58910899 20.97293724 -71.8474857 9.85511851 -60.5078125 0.15234375 C-43.95204013 -11.46511884 -16.58846087 -10.81963791 0 0 Z M-45.75 25.0625 C-50.18351534 30.8332985 -51.14782569 36.62551321 -50.375 43.75 C-49.10349727 49.29295722 -46.97792796 53.24777221 -42.375 56.75 C-35.10609009 60.19682535 -28.39573748 60.76546925 -20.6875 58.625 C-15.51202792 56.75682441 -12.8383134 53.6766268 -10.375 48.75 C-9.37413228 35.58619966 -9.37413228 35.58619966 -14.375 23.75 C-19.86182299 19.08036341 -25.06679246 18.41556847 -32.0390625 18.54296875 C-37.75348808 19.04943122 -41.8593837 20.80448894 -45.75 25.0625 Z " fill="#000101" transform="translate(469.375,104.25)"/>
<path d="M0 0 C11.54747544 8.56401989 17.7698956 19.98620476 19.88134766 34.09814453 C20.47653288 39.5072928 20.49477989 44.96724117 20.64379883 50.40307617 C21.0841702 62.75878333 23.73882674 74.46089359 27.125 86.3125 C17.555 86.3125 7.985 86.3125 -1.875 86.3125 C-3.195 83.0125 -4.515 79.7125 -5.875 76.3125 C-8.7021809 76.3125 -9.32595282 77.59660299 -11.3125 79.5625 C-18.37947824 85.840014 -26.39536032 88.05944196 -35.765625 87.6953125 C-47.5734123 86.24158994 -58.9990201 81.24897146 -67.2109375 72.4921875 C-77.67427379 58.78669067 -79.51870785 44.50699116 -77.4453125 27.86328125 C-75.14946763 17.02179161 -69.07155014 7.5580349 -59.875 1.3125 C-42.02616298 -9.09329972 -18.21337629 -11.08237642 0 0 Z M-45.75 26.125 C-49.39970238 31.59955357 -50.43697432 36.79359786 -49.875 43.3125 C-48.57333453 49.21067167 -46.87301107 53.6183179 -41.875 57.3125 C-33.58330717 61.228462 -26.53395607 61.13734189 -17.953125 58.359375 C-14.34274749 56.5406134 -12.33825208 54.40260017 -10.7578125 50.68359375 C-8.5061523 41.96711533 -8.48861257 35.00004675 -12.625 26.875 C-16.78344382 22.13899454 -20.97288976 19.71731076 -27.171875 19.07421875 C-34.76485339 18.84449488 -40.49908081 20.41481675 -45.75 26.125 Z " fill="#000101" transform="translate(852.875,103.6875)"/>
<path d="M0 0 C6.74847571 5.94602538 10.4649583 12.05277672 11.31640625 21.078125 C10.54540621 30.17592544 7.82018517 36.59785845 1.00390625 42.765625 C-9.5331033 51.62521823 -23.83786235 52.79153733 -37.02880859 51.97216797 C-41.01986612 51.5531515 -44.34675933 50.38755141 -47.99609375 48.765625 C-46.36987979 51.77412083 -44.76012264 53.44862112 -41.5859375 54.765625 C-26.96201363 58.85953639 -11.81877306 56.40123099 3.00390625 54.765625 C3.00390625 63.675625 3.00390625 72.585625 3.00390625 81.765625 C-18.80275244 86.79793085 -39.83711688 89.29309201 -59.94921875 77.76953125 C-69.97142025 71.17800642 -76.20894196 62.03314295 -79.37109375 50.453125 C-81.98020191 35.42357485 -79.46846067 21.78043102 -70.83984375 9.203125 C-65.53981203 2.1963034 -60.16717598 -1.91980524 -51.99609375 -5.234375 C-51.22136719 -5.55535156 -50.44664062 -5.87632813 -49.6484375 -6.20703125 C-33.98712546 -11.54329447 -13.44913389 -9.80820814 0 0 Z M-47.99609375 26.765625 C-39.08244211 30.81728484 -29.1488497 30.88145681 -19.99609375 27.765625 C-19.31808341 24.86489319 -19.31808341 24.86489319 -18.99609375 21.765625 C-22.13971242 18.62200633 -25.4272523 18.59815063 -29.74609375 18.515625 C-37.63488259 18.62018921 -42.8486103 20.81384726 -47.99609375 26.765625 Z " fill="#000101" transform="translate(761.99609375,105.234375)"/>
<path d="M0 0 C1.19718563 1.02799023 2.36584793 2.09035988 3.5 3.1875 C4.34498047 3.97447266 4.34498047 3.97447266 5.20703125 4.77734375 C10.42637382 10.17447414 12.1024721 16.41098492 12.875 23.75 C11.88428665 32.83153903 8.51716779 39.21448677 1.5 45.1875 C-7.8786947 51.07908271 -16.98618667 53.54419416 -27.9375 53.5 C-28.73220703 53.51611328 -29.52691406 53.53222656 -30.34570312 53.54882812 C-36.21330998 53.55360242 -41.05531103 52.33948339 -46.5 50.1875 C-40.76987892 56.40877432 -35.67094522 57.91299303 -27.3359375 58.35546875 C-16.62354355 58.41592244 -6.13427514 57.39667646 4.5 56.1875 C5.42553743 59.32600064 5.61664647 62.12430778 5.59765625 65.390625 C5.59282227 66.86015625 5.59282227 66.86015625 5.58789062 68.359375 C5.57532227 69.88304687 5.57532227 69.88304687 5.5625 71.4375 C5.55798828 72.46875 5.55347656 73.5 5.54882812 74.5625 C5.53706088 77.10422573 5.52062011 79.64583319 5.5 82.1875 C-12.65216133 88.44712324 -33.87089314 90.5435947 -51.8984375 82.7109375 C-64.66592459 76.31258584 -71.11743604 68.24606822 -76.5 55.1875 C-79.85030616 43.38351434 -78.3781503 28.27670363 -73.5 17.1875 C-66.72777646 5.21763311 -57.38342771 -1.45804538 -44.5 -5.8125 C-30.84791024 -9.55312494 -11.71043879 -8.19511007 0 0 Z M-44 25.875 C-44.495 26.638125 -44.99 27.40125 -45.5 28.1875 C-39.14288977 32.00176614 -29.48786966 32.41417319 -22.33984375 30.65625 C-19.60388067 29.6225391 -17.83216574 28.77801686 -16.375 26.1875 C-16.32924694 24.11739599 -16.32924694 24.11739599 -17.6875 22.5 C-25.1415018 17.10227456 -38.0364255 19.46415741 -44 25.875 Z " fill="#000101" transform="translate(632.5,103.8125)"/>
<path d="M0 0 C1.76404175 0.00193359 1.76404175 0.00193359 3.5637207 0.00390625 C14.03552258 0.11752179 23.88768826 1.45388736 34.1875 3.3125 C34.1875 12.2225 34.1875 21.1325 34.1875 30.3125 C25.1875 29.3125 25.1875 29.3125 21.51171875 28.77734375 C13.76850792 27.65453659 6.20350326 27.12570776 -1.625 27.125 C-2.92401245 27.12391235 -2.92401245 27.12391235 -4.24926758 27.12280273 C-7.76345055 27.15387081 -10.44822776 27.19107592 -13.8125 28.3125 C-14.1425 28.9725 -14.4725 29.6325 -14.8125 30.3125 C-12.9253125 30.67601562 -12.9253125 30.67601562 -11 31.046875 C-5.59641342 32.09830919 -0.20249685 33.19359879 5.1875 34.3125 C5.96512695 34.47266602 6.74275391 34.63283203 7.54394531 34.79785156 C19.3538879 37.28665826 30.23440608 40.7126785 37.1875 51.3125 C40.44025267 57.81800534 40.06472787 66.02203476 38.1875 72.9375 C35.44707575 80.0498569 30.19463435 85.53818719 23.5625 89.1875 C4.04137503 97.68389325 -23.73220319 97.00593227 -43.8125 90.3125 C-43.8125 81.4025 -43.8125 72.4925 -43.8125 63.3125 C-38.41440458 63.91228838 -33.13067317 64.55489556 -27.77734375 65.3671875 C-19.61257153 66.46725305 -11.60000196 66.54076308 -3.375 66.4375 C-1.94987623 66.42742845 -0.5247454 66.41831014 0.90039062 66.41015625 C4.32957846 66.38852292 7.75849067 66.35423497 11.1875 66.3125 C8.53423269 62.81973916 5.10234095 62.32980776 1.02734375 61.48046875 C-0.42130034 61.15333286 -1.86986549 60.82584723 -3.31835938 60.49804688 C-5.58553455 59.99848327 -7.85371072 59.50456017 -10.1237793 59.01831055 C-21.7952935 56.49505131 -32.64370478 53.83015219 -39.6953125 43.3125 C-43.35708641 36.7571565 -43.81965596 29.78095776 -42.1953125 22.57421875 C-39.74613448 14.73901648 -35.71696588 9.2256136 -28.609375 5.00390625 C-19.38594239 0.60181342 -10.098724 -0.04596532 0 0 Z " fill="#000101" transform="translate(349.8125,96.6875)"/>
<path d="M0 0 C1.1657959 0.00652588 2.3315918 0.01305176 3.53271484 0.01977539 C29.98717202 0.42467202 29.98717202 0.42467202 33.9375 4.375 C34.02498207 6.30167507 34.04447334 8.23151861 34.03515625 10.16015625 C34.03032227 11.91489258 34.03032227 11.91489258 34.02539062 13.70507812 C34.01282227 15.55262695 34.01282227 15.55262695 34 17.4375 C33.99548828 18.67306641 33.99097656 19.90863281 33.98632812 21.18164062 C33.97449608 24.24614117 33.95801173 27.31054721 33.9375 30.375 C28.35611348 29.85701721 22.84564937 29.22122891 17.3125 28.3125 C6.57789461 26.82004714 -4.249121 27.20035231 -15.0625 27.375 C-14.7325 28.365 -14.4025 29.355 -14.0625 30.375 C-11.14083766 31.39385062 -11.14083766 31.39385062 -7.53515625 32.05859375 C-6.87221054 32.20023453 -6.20926483 32.34187531 -5.52622986 32.48780823 C-3.3949079 32.941965 -1.26054186 33.37865414 0.875 33.8125 C28.53140217 39.48912237 28.53140217 39.48912237 36.875 51.0625 C39.35443067 58.79248974 40.14140815 67.7519082 36.9375 75.375 C31.36535527 85.09385709 23.2665387 89.64480802 12.75 92.75 C-5.40795491 97.17780811 -26.10911095 94.86334726 -44.0625 90.375 C-44.0625 81.465 -44.0625 72.555 -44.0625 63.375 C-40.9275 63.87 -37.7925 64.365 -34.5625 64.875 C-19.44855983 67.03961885 -4.28730334 66.6567535 10.9375 66.375 C8.28423269 62.88223916 4.85234095 62.39230776 0.77734375 61.54296875 C-0.67130034 61.21583286 -2.11986549 60.88834723 -3.56835938 60.56054688 C-5.83553455 60.06098327 -8.10371072 59.56706017 -10.3737793 59.08081055 C-22.00806496 56.56559973 -33.03352477 53.81196322 -40.0625 43.375 C-43.90327229 36.75297881 -44.18834779 29.52422632 -42.55859375 22.0703125 C-41.87220425 20.0542885 -41.06464556 18.25300449 -40.0625 16.375 C-39.74539063 15.77042969 -39.42828125 15.16585937 -39.1015625 14.54296875 C-34.73605233 7.43740432 -27.41902216 3.78060623 -19.5390625 1.7265625 C-12.9837343 0.17383921 -6.71447961 -0.08223997 0 0 Z " fill="#000101" transform="translate(988.0625,96.625)"/>
<path d="M0 0 C0 8.91 0 17.82 0 27 C-3.21608287 28.07202762 -5.32255231 28.00425535 -8.6875 27.875 C-15.063136 27.82874387 -19.97382166 28.54265218 -25.078125 32.6875 C-27.4764171 35.57324984 -28.24161792 38.14863544 -29.25 41.75 C-29.58515625 42.92046875 -29.9203125 44.0909375 -30.265625 45.296875 C-30.50796875 46.18890625 -30.7503125 47.0809375 -31 48 C-30.3387915 47.99476318 -29.67758301 47.98952637 -28.99633789 47.98413086 C-26.01840149 47.96342344 -23.04048018 47.95035988 -20.0625 47.9375 C-18.50112305 47.92493164 -18.50112305 47.92493164 -16.90820312 47.91210938 C-15.91884766 47.90888672 -14.92949219 47.90566406 -13.91015625 47.90234375 C-12.99371338 47.89710693 -12.07727051 47.89187012 -11.13305664 47.88647461 C-9 48 -9 48 -8 49 C-7.91251793 50.92667507 -7.89302666 52.85651861 -7.90234375 54.78515625 C-7.90556641 55.95498047 -7.90878906 57.12480469 -7.91210938 58.33007812 C-7.92467773 60.17762695 -7.92467773 60.17762695 -7.9375 62.0625 C-7.94201172 63.29806641 -7.94652344 64.53363281 -7.95117188 65.80664062 C-7.96300382 68.87111413 -7.98093992 71.93556293 -8 75 C-15.59 75 -23.18 75 -31 75 C-30.96447021 76.87292725 -30.92894043 78.74585449 -30.89233398 80.67553711 C-30.77638632 86.8501459 -30.66510361 93.02482482 -30.5570364 99.19957638 C-30.49131602 102.94487413 -30.42369822 106.69011795 -30.35180664 110.43530273 C-30.28255112 114.04674563 -30.218198 117.65824509 -30.15730476 121.26983833 C-30.13315026 122.6506323 -30.10720187 124.03139605 -30.07946587 125.41212273 C-30.04104569 127.33968352 -30.00948247 129.26737736 -29.97827148 131.19506836 C-29.95828598 132.29427109 -29.93830048 133.39347382 -29.91770935 134.52598572 C-30 137 -30 137 -31 138 C-33.0605531 138.09993532 -35.1245259 138.13080906 -37.1875 138.1328125 C-38.44304688 138.13410156 -39.69859375 138.13539063 -40.9921875 138.13671875 C-41.64928711 138.13462402 -42.30638672 138.1325293 -42.98339844 138.13037109 C-44.99161335 138.12502234 -46.99960459 138.13031691 -49.0078125 138.13671875 C-50.26335937 138.13542969 -51.51890625 138.13414062 -52.8125 138.1328125 C-53.97394531 138.13168457 -55.13539063 138.13055664 -56.33203125 138.12939453 C-59 138 -59 138 -60 137 C-60.11662995 134.10180914 -60.16803027 131.22714628 -60.17700195 128.32788086 C-60.18357315 127.41709274 -60.19014435 126.50630463 -60.19691467 125.56791687 C-60.2167246 122.53355837 -60.22833608 119.49924989 -60.23828125 116.46484375 C-60.24235678 115.42660524 -60.2464323 114.38836674 -60.25063133 113.31866646 C-60.27153889 107.80839357 -60.28581221 102.29814583 -60.29516602 96.7878418 C-60.30615461 91.12932283 -60.3404525 85.47120542 -60.38033772 79.81282711 C-60.40667885 75.43806807 -60.41487396 71.06340137 -60.41844749 66.68857002 C-60.42327965 64.60566096 -60.43479569 62.52275506 -60.45348549 60.43992424 C-60.58421158 44.88664727 -60.6599984 28.4755699 -50 16 C-49.52175781 15.39027344 -49.04351562 14.78054687 -48.55078125 14.15234375 C-43.31301361 8.14936068 -36.16062607 5.12067826 -29 2 C-28.1646875 1.63519531 -27.329375 1.27039062 -26.46875 0.89453125 C-19.6020684 -1.60992625 -6.7233013 -3.36165065 0 0 Z " fill="#000100" transform="translate(560,52)"/>
<path d="M0 0 C9.57 0 19.14 0 29 0 C29 7.92 29 15.84 29 24 C37.25 24 45.5 24 54 24 C54.83875548 28.19377742 55.13432918 31.5817186 55.125 35.8125 C55.12886719 37.55466797 55.12886719 37.55466797 55.1328125 39.33203125 C54.99141555 43.23708241 54.4846794 47.12256482 54 51 C45.75 51 37.5 51 29 51 C29.0825 54.465 29.165 57.93 29.25 61.5 C29.26579102 62.57572266 29.28158203 63.65144531 29.29785156 64.75976562 C29.56063819 72.25609994 30.99752955 77.9163817 36.3125 83.375 C43.93783788 87.98566941 49.61077048 87 59 87 C59 95.91 59 104.82 59 114 C47.81851476 117.72716175 35.09856386 114.09096258 24.8125 109.3125 C11.62695807 102.29744697 4.92314805 92.18986814 0.43287659 78.237854 C-0.18937949 75.02095963 -0.13037336 71.83217788 -0.11352539 68.56933594 C-0.11367142 67.82748047 -0.11381744 67.085625 -0.1139679 66.32128906 C-0.11327269 63.87562103 -0.10549866 61.43002969 -0.09765625 58.984375 C-0.09579068 57.28615358 -0.09436743 55.58793162 -0.09336853 53.88970947 C-0.08955432 49.42466745 -0.07973339 44.95965806 -0.06866455 40.49462891 C-0.05842687 35.93652793 -0.05386586 31.37842167 -0.04882812 26.8203125 C-0.03811014 17.8801917 -0.0205222 8.94010367 0 0 Z " fill="#000101" transform="translate(881,76)"/>
<path d="M0 0 C4.81993586 0.00256895 9.63987001 0.00017342 14.45980597 -0.00138617 C22.55389519 -0.00319587 30.64797523 -0.00083434 38.74206305 0.00395441 C48.02426792 0.00938361 57.30645078 0.00763926 66.58865511 0.00212801 C74.63020024 -0.00245086 82.67173884 -0.00303028 90.71328485 -0.00043333 C95.48416384 0.0011049 100.25503258 0.00139252 105.02591085 -0.00196981 C125.71484964 -0.01462359 146.34919729 0.12350063 167.01843023 1.1343255 C166.22399664 4.94340754 166.22399664 4.94340754 164.37389898 6.66166925 C142.51346556 20.88079802 117.68845505 18.29196786 92.62621522 18.26865101 C88.97786453 18.26607512 85.32951604 18.26847916 81.68116522 18.27003717 C75.56173 18.27184366 69.44230695 18.26949264 63.32287359 18.2646966 C56.29904501 18.2592545 49.27524546 18.26102246 42.25141758 18.266523 C36.16417682 18.27109495 30.07694468 18.27168498 23.98970276 18.26908433 C20.37882533 18.26754412 16.76796144 18.26726454 13.15708494 18.27062082 C-43.11083832 18.31520111 -43.11083832 18.31520111 -57.98156977 5.1343255 C-57.98156977 3.8143255 -57.98156977 2.4943255 -57.98156977 1.1343255 C-38.66924304 -0.16017521 -19.34465961 -0.01357599 0 0 Z " fill="#000201" transform="translate(73.98156976699829,216.86567449569702)"/>
<path d="M0 0 C11.2299453 9.52540003 19.55156227 22.70541192 21.6875 37.484375 C22.97729112 55.56869976 19.90242677 71.00348263 8.3046875 85.453125 C6.16819245 87.89875921 4.07688822 90.28477525 1.6875 92.484375 C1.0275 92.484375 0.3675 92.484375 -0.3125 92.484375 C-0.3125 93.144375 -0.3125 93.804375 -0.3125 94.484375 C-16.37812457 104.82662082 -31.71593661 108.61096401 -50.875 105.359375 C-66.51416246 101.85902858 -78.47561878 92.71536893 -87.85546875 79.84375 C-96.25611391 66.24056052 -99.20236479 50.03170714 -96.0625 34.44140625 C-91.69658357 17.22787115 -82.20631309 4.20119768 -67.04296875 -4.98046875 C-45.74565301 -16.95449606 -19.40631715 -15.39041659 0 0 Z M-75.3125 10.484375 C-82.70769691 19.61469092 -88.81895731 29.46768336 -89.3125 41.484375 C-89.35246094 42.4125 -89.39242187 43.340625 -89.43359375 44.296875 C-89.71561163 57.30287587 -86.97920921 70.39844021 -77.765625 80.19140625 C-76.55132812 81.32642578 -76.55132812 81.32642578 -75.3125 82.484375 C-74.80847656 83.06960937 -74.30445313 83.65484375 -73.78515625 84.2578125 C-65.11382551 94.10613827 -51.23593173 98.58806079 -38.48828125 99.4453125 C-24.14144006 99.62178041 -11.69416242 94.20189067 -1.3125 84.484375 C3.85510585 79.37041211 8.08353925 74.31505464 10.6875 67.484375 C10.98527344 66.73285156 11.28304687 65.98132813 11.58984375 65.20703125 C15.87979098 52.37672824 15.24712491 36.76803003 9.6875 24.484375 C2.65807046 11.01278471 -7.81855182 1.69765119 -22.25708008 -3.17138672 C-41.19193706 -8.40268054 -61.14331701 -2.95309939 -75.3125 10.484375 Z " fill="#010501" transform="translate(168.3125,17.515625)"/>
<path d="M0 0 C5.22321429 4.82142857 5.22321429 4.82142857 6 9 C3.62755857 11.23190252 1.25158354 13.46000925 -1.125 15.6875 C-1.79015625 16.31333984 -2.4553125 16.93917969 -3.140625 17.58398438 C-6.09452869 20.34964911 -9.04747024 23.08116959 -12.1796875 25.64453125 C-14.96064748 27.96713356 -17.47290388 30.40546175 -20 33 C-20.943049 33.95667784 -21.88709936 34.91236939 -22.83203125 35.8671875 C-23.5590625 36.60195312 -23.5590625 36.60195312 -24.30078125 37.3515625 C-28.85615239 41.94224659 -33.4488635 46.40017744 -38.375 50.59765625 C-40.35097064 52.30288091 -42.19292649 54.11763176 -44 56 C-48.37139255 54.37514186 -50.92161599 51.07989887 -53.9375 47.6875 C-54.96644006 46.54466469 -55.99637654 45.40272567 -57.02734375 44.26171875 C-57.52580811 43.7097583 -58.02427246 43.15779785 -58.5378418 42.58911133 C-61.48868507 39.38205859 -64.59234865 36.37141567 -67.8125 33.4375 C-70 31 -70 31 -70 27 C-67.75 24.6875 -67.75 24.6875 -65 23 C-62.41823517 23.23005825 -61.27693086 23.7358713 -59.39453125 25.53125 C-58.87246094 26.1809375 -58.35039063 26.830625 -57.8125 27.5 C-53.81951237 32.29158516 -49.45272055 36.6381513 -45 41 C-43.34987335 39.59051682 -41.7005222 38.18011747 -40.0546875 36.765625 C-38.72945577 35.62683271 -37.40152257 34.49117303 -36.0703125 33.359375 C-31.58158278 29.50159122 -27.39760849 25.42387297 -23.2421875 21.2109375 C-20.50747159 18.5143361 -17.64926073 15.9975184 -14.7265625 13.5078125 C-12.9695883 12.02203902 -12.9695883 12.02203902 -11.3984375 10.3046875 C-10 9 -10 9 -8 9 C-7.79375 8.443125 -7.5875 7.88625 -7.375 7.3125 C-5.44999226 4.07498698 -2.96149098 2.31768859 0 0 Z " fill="#010401" transform="translate(164,42)"/>
<path d="M0 0 C1 4 1 4 1 4 Z " fill="#000000" transform="translate(389,149)"/>
<path d="" fill="#000000" transform="translate(0,0)"/>
<path d="" fill="#000000" transform="translate(0,0)"/>
<path d="" fill="#000000" transform="translate(0,0)"/>
<path d="M0 0 C2 1 2 1 2 1 Z " fill="#000000" transform="translate(136,149)"/>
<path d="" fill="#FFFF00" transform="translate(0,0)"/>
<path d="" fill="#FFFF00" transform="translate(0,0)"/>
<path d="" fill="#FFFF00" transform="translate(0,0)"/>
<path d="" fill="#FFFF00" transform="translate(0,0)"/>
<path d="" fill="#FFFF00" transform="translate(0,0)"/>
<path d="" fill="#FFFF00" transform="translate(0,0)"/>
<path d="" fill="#FFFF00" transform="translate(0,0)"/>
<path d="" fill="#FFFF00" transform="translate(0,0)"/>
<path d="" fill="#FFFFFF" transform="translate(0,0)"/>
<path d="" fill="#FFFF00" transform="translate(0,0)"/>
<path d="" fill="#FFFF00" transform="translate(0,0)"/>
<path d="" fill="#FFFF00" transform="translate(0,0)"/>
<path d="" fill="#FFFF00" transform="translate(0,0)"/>
<path d="" fill="#FFFF00" transform="translate(0,0)"/>
<path d="" fill="#FFFFFF" transform="translate(0,0)"/>
<path d="" fill="#FFFF00" transform="translate(0,0)"/>
<path d="" fill="#FFFF00" transform="translate(0,0)"/>
<path d="" fill="#FFFFFF" transform="translate(0,0)"/>
<path d="" fill="#FFFF00" transform="translate(0,0)"/>
<path d="" fill="#FFFFFF" transform="translate(0,0)"/>
<path d="" fill="#FFFFFF" transform="translate(0,0)"/>
<path d="" fill="#FFFF00" transform="translate(0,0)"/>
<path d="" fill="#FFFF00" transform="translate(0,0)"/>
<path d="" fill="#FFFF00" transform="translate(0,0)"/>
<path d="" fill="#FFFF00" transform="translate(0,0)"/>
<path d="" fill="#FFFF00" transform="translate(0,0)"/>
<path d="" fill="#FFFF00" transform="translate(0,0)"/>
<path d="" fill="#FFFF00" transform="translate(0,0)"/>
<path d="" fill="#FFFF00" transform="translate(0,0)"/>
<path d="" fill="#FFFF00" transform="translate(0,0)"/>
<path d="" fill="#FFFF00" transform="translate(0,0)"/>
<path d="" fill="#FFFF00" transform="translate(0,0)"/>
<path d="" fill="#FFFF00" transform="translate(0,0)"/>
<path d="" fill="#FFFF00" transform="translate(0,0)"/>
<path d="" fill="#FFFF00" transform="translate(0,0)"/>
<path d="" fill="#FFFF00" transform="translate(0,0)"/>
<path d="" fill="#FFFF00" transform="translate(0,0)"/>
<path d="" fill="#FFFF00" transform="translate(0,0)"/>
<path d="" fill="#FFFFFF" transform="translate(0,0)"/>
<path d="" fill="#FFFF00" transform="translate(0,0)"/>
<path d="" fill="#FFFF00" transform="translate(0,0)"/>
<path d="" fill="#FFFF00" transform="translate(0,0)"/>
<path d="" fill="#FFFFFF" transform="translate(0,0)"/>
<path d="" fill="#FFFF00" transform="translate(0,0)"/>
<path d="" fill="#FFFF00" transform="translate(0,0)"/>
<path d="" fill="#FFFF00" transform="translate(0,0)"/>
<path d="" fill="#FFFF00" transform="translate(0,0)"/>
<path d="" fill="#FFFF00" transform="translate(0,0)"/>
<path d="" fill="#FFFF00" transform="translate(0,0)"/>
<path d="" fill="#FFFF00" transform="translate(0,0)"/>
<path d="" fill="#FFFF00" transform="translate(0,0)"/>
<path d="" fill="#FFFF00" transform="translate(0,0)"/>
<path d="" fill="#FFFF00" transform="translate(0,0)"/>
<path d="" fill="#FFFF00" transform="translate(0,0)"/>
<path d="" fill="#FFFF00" transform="translate(0,0)"/>
<path d="" fill="#FFFF00" transform="translate(0,0)"/>
<path d="" fill="#FFFFFF" transform="translate(0,0)"/>
<path d="" fill="#FFFF00" transform="translate(0,0)"/>
<path d="" fill="#FFFF00" transform="translate(0,0)"/>
<path d="" fill="#FFFF00" transform="translate(0,0)"/>
<path d="" fill="#FFFF00" transform="translate(0,0)"/>
<path d="" fill="#FFFF00" transform="translate(0,0)"/>
<path d="" fill="#FFFF00" transform="translate(0,0)"/>
<path d="" fill="#FFFF00" transform="translate(0,0)"/>
<path d="" fill="#FFFF00" transform="translate(0,0)"/>
</svg>
